<?xml version="1.0" standalone="no"?>
<!DOCTYPE svg PUBLIC "-//W3C//DTD SVG 20010904//EN"
 "http://www.w3.org/TR/2001/REC-SVG-20010904/DTD/svg10.dtd">
<svg version="1.0" xmlns="http://www.w3.org/2000/svg"
 width="524.000000pt" height="524.000000pt" viewBox="0 0 524.000000 524.000000"
 preserveAspectRatio="xMidYMid meet">
<metadata>
Created by potrace 1.11, written by Peter Selinger 2001-2013
</metadata>
<g transform="translate(0.000000,524.000000) scale(0.100000,-0.100000)"
fill="#000000" stroke="none">
<path d="M292 5186 c0 -36 4 -44 18 -43 16 1 16 4 3 44 -8 24 -17 43 -19 43
-2 0 -3 -20 -2 -44z"/>
<path d="M483 4437 c3 -9 3 -17 -1 -17 -4 0 -8 -145 -9 -322 0 -178 -4 -372
-7 -433 -4 -60 -8 -153 -11 -205 -10 -204 -22 -415 -30 -495 -3 -33 -7 -96
-10 -140 -3 -44 -7 -109 -10 -145 -2 -36 -7 -92 -9 -125 -2 -33 -7 -85 -11
-115 -8 -61 -10 -80 -19 -160 -4 -30 -9 -77 -12 -105 -18 -163 -25 -338 -25
-695 0 -301 2 -405 15 -605 7 -101 33 -215 69 -300 26 -61 96 -177 115 -188 7
-5 25 -22 39 -38 58 -65 204 -134 305 -144 113 -11 194 -6 340 20 84 16 265
80 365 129 29 14 56 26 59 26 3 0 19 11 34 24 l28 23 -161 -1 c-148 0 -167 2
-213 23 -67 29 -99 64 -116 126 -12 41 -12 60 -3 105 18 80 64 186 113 260 51
78 216 216 322 270 14 7 27 16 30 20 8 11 248 120 265 120 4 0 21 6 38 14 35
15 152 54 183 60 10 2 31 9 47 15 15 6 27 8 27 5 0 -4 6 -1 14 5 8 6 18 11 22
10 5 -1 12 0 17 1 11 4 19 6 67 15 52 10 58 12 65 15 7 3 13 5 70 15 28 5 52
9 55 10 6 1 139 24 185 31 16 3 48 7 70 9 22 3 51 7 64 10 23 4 93 11 211 21
30 2 71 7 90 9 19 3 89 7 155 10 274 11 298 13 440 40 124 22 212 49 281 86
75 40 100 63 129 120 25 49 25 79 0 153 -17 48 -12 58 23 50 35 -9 102 -77
129 -134 39 -80 44 -96 64 -195 19 -99 29 -101 102 -25 34 36 89 97 122 135
33 39 63 71 67 73 5 2 8 10 8 18 0 9 5 12 10 9 6 -3 10 -2 10 3 0 5 12 22 27
38 41 44 116 171 145 244 56 143 66 270 33 432 -12 59 -85 243 -151 383 -21
44 -39 82 -39 85 -3 11 -58 120 -105 205 -27 50 -57 105 -66 123 -20 38 -27
43 -68 48 -39 5 -232 15 -306 17 -73 1 -83 12 -59 59 26 50 24 104 -4 145 -12
18 -28 33 -34 33 -7 0 -13 5 -13 10 0 11 -133 76 -175 85 -5 2 -41 12 -80 23
-38 11 -83 23 -100 26 -45 7 -137 25 -162 30 -12 3 -48 7 -80 11 -32 3 -65 8
-73 10 -16 5 -103 14 -190 20 -30 2 -84 7 -120 10 -36 3 -94 8 -130 11 -158
13 -277 15 -1060 12 -295 -1 -414 5 -540 27 -47 8 -98 17 -115 20 -16 3 -52
11 -80 17 -27 7 -52 13 -55 13 -3 1 -25 8 -50 15 -25 7 -47 14 -50 14 -3 1
-18 7 -35 13 -52 21 -90 36 -95 38 -26 8 -90 41 -90 47 0 5 -5 8 -11 8 -25 0
-130 80 -208 160 -47 46 -82 77 -78 67z"/>
<path d="M4235 1360 c3 -5 11 -10 16 -10 6 0 7 5 4 10 -3 6 -11 10 -16 10 -6
0 -7 -4 -4 -10z"/>
<path d="M2250 710 c-9 -6 -11 -10 -3 -10 7 0 10 -7 6 -17 -5 -15 -3 -14 10 2
26 32 19 46 -13 25z"/>
</g>
</svg>
