<?xml version="1.0" standalone="no"?>
<!DOCTYPE svg PUBLIC "-//W3C//DTD SVG 20010904//EN"
 "http://www.w3.org/TR/2001/REC-SVG-20010904/DTD/svg10.dtd">
<svg version="1.0" xmlns="http://www.w3.org/2000/svg"
 width="1152.000000pt" height="1152.000000pt" viewBox="0 0 1152.000000 1152.000000"
 preserveAspectRatio="xMidYMid meet">
<metadata>
Created by potrace 1.11, written by Peter Selinger 2001-2013
</metadata>
<g transform="translate(0.000000,1152.000000) scale(0.100000,-0.100000)"
fill="#000000" stroke="none">
<path d="M2040 8212 c-23 -8 -29 -23 -19 -50 6 -16 6 -29 -2 -38 -9 -11 -9
-14 0 -14 7 0 10 -4 7 -9 -3 -5 8 -11 24 -14 19 -4 35 -17 45 -37 8 -16 26
-32 38 -35 13 -4 31 -22 42 -41 17 -31 27 -38 47 -35 9 1 39 -44 37 -55 -4
-23 3 -34 19 -34 28 0 49 -29 57 -79 6 -36 12 -45 36 -54 19 -8 33 -22 40 -44
6 -18 16 -34 22 -34 7 -1 17 -2 22 -4 6 -1 16 -3 24 -3 7 -1 11 -8 8 -14 -5
-14 6 -51 14 -46 11 7 47 -39 53 -69 7 -29 21 -42 54 -49 16 -3 52 -34 52 -44
0 -8 -1 -8 -95 -15 -38 -2 -101 -7 -140 -11 -38 -3 -86 -6 -105 -6 -19 0 -42
-6 -51 -14 -15 -14 -95 -25 -199 -28 -25 -1 -54 -6 -66 -13 -11 -6 -42 -14
-70 -16 -27 -2 -66 -14 -86 -26 -48 -29 -127 -38 -235 -27 -46 4 -56 2 -89
-25 -20 -16 -40 -29 -43 -30 -3 0 -15 -3 -26 -5 -11 -2 -40 -7 -65 -10 -25 -3
-52 -7 -60 -8 -22 -4 -70 -27 -113 -55 -31 -20 -52 -24 -115 -26 -42 -1 -88
-7 -102 -13 -14 -6 -21 -11 -17 -11 14 -1 -18 -28 -43 -37 -14 -4 -50 -9 -80
-10 -88 -3 -84 -2 -70 -19 9 -11 9 -15 1 -15 -7 0 -9 -5 -6 -10 9 -15 -39 -30
-101 -31 -37 -1 -62 -8 -77 -20 -12 -10 -17 -18 -11 -19 14 0 12 -46 -3 -61
-15 -15 7 -39 36 -39 12 0 29 -10 39 -21 9 -12 26 -29 36 -38 11 -9 29 -26 41
-38 23 -23 57 -39 102 -47 36 -7 47 -20 47 -58 1 -31 3 -33 36 -33 24 0 37 -5
42 -18 4 -9 16 -20 25 -24 10 -3 29 -15 42 -25 13 -10 34 -18 46 -18 26 0 40
-14 49 -53 4 -15 12 -27 19 -26 25 3 38 -2 57 -21 11 -11 33 -21 50 -22 17 -1
30 -8 30 -15 0 -7 5 -13 10 -13 6 0 10 4 10 9 0 10 40 8 59 -3 6 -4 9 -11 7
-15 -3 -4 -2 -11 2 -16 11 -15 75 -42 93 -40 8 2 24 -10 35 -26 17 -26 37 -34
72 -30 6 1 12 -2 12 -7 0 -14 74 -50 100 -48 14 1 40 -10 60 -26 19 -15 45
-29 56 -31 12 -1 33 -10 47 -20 16 -10 46 -17 76 -17 41 0 53 -4 69 -25 11
-14 23 -25 27 -25 23 0 145 -44 145 -52 0 -26 31 -38 88 -36 67 2 127 -20 135
-52 3 -12 14 -20 29 -21 12 -1 42 -2 65 -4 44 -2 83 -27 83 -52 0 -8 13 -22
30 -31 53 -31 42 -85 -21 -102 -21 -6 -54 -26 -74 -44 -28 -27 -48 -35 -93
-42 -31 -4 -60 -7 -64 -6 -4 1 -10 -7 -13 -18 -3 -10 -22 -29 -41 -40 -19 -12
-34 -30 -34 -40 0 -22 -10 -30 -47 -36 -15 -3 -30 -9 -33 -14 -3 -4 -19 -10
-37 -13 -32 -5 -129 -75 -118 -85 8 -8 -16 -32 -33 -32 -17 0 -101 -88 -102
-107 0 -7 7 -13 15 -13 8 0 26 -20 41 -45 14 -25 30 -43 34 -40 5 3 14 -1 22
-8 7 -7 22 -12 33 -12 23 1 75 -25 75 -38 0 -4 5 -5 10 -2 6 3 10 1 10 -5 0
-6 4 -8 10 -5 13 8 52 -19 42 -30 -4 -5 4 -1 17 8 22 15 56 13 46 -3 -3 -4 13
-20 35 -35 28 -19 46 -26 64 -21 18 4 33 -1 55 -20 17 -14 43 -27 58 -30 15
-3 32 -9 37 -15 6 -5 25 -9 42 -9 25 0 38 -7 54 -30 12 -17 25 -28 30 -25 5 3
11 1 15 -4 3 -6 15 -7 28 -2 35 13 98 0 135 -29 13 -11 28 -17 33 -14 5 3 21
-4 36 -16 24 -17 44 -20 138 -22 108 -1 111 -2 137 -31 31 -33 45 -36 183 -42
105 -5 116 -6 179 -20 22 -4 47 -9 55 -10 30 -4 61 -17 61 -25 0 -5 26 -8 58
-8 31 1 82 -2 112 -6 30 -4 73 -8 95 -10 51 -4 49 -4 36 -19 -6 -8 -8 -17 -4
-20 3 -4 1 -7 -5 -7 -6 0 -9 -9 -7 -20 3 -15 -5 -25 -33 -38 -21 -9 -38 -26
-40 -37 -5 -25 -31 -55 -48 -55 -7 0 -19 -8 -26 -18 -7 -10 -26 -25 -43 -33
-16 -8 -30 -19 -30 -24 -2 -30 -18 -55 -36 -55 -13 0 -25 -12 -35 -35 -10 -24
-21 -35 -35 -35 -24 0 -49 -22 -49 -43 0 -14 -31 -47 -44 -47 -9 0 -116 -112
-116 -122 0 -3 -13 -10 -28 -16 -16 -5 -29 -16 -29 -23 -1 -30 -13 -71 -23
-84 -6 -7 -23 -15 -39 -18 -28 -6 -29 -8 -25 -54 2 -26 3 -56 4 -66 0 -15 5
-17 28 -13 15 4 37 9 50 11 12 3 31 7 42 9 10 3 29 -3 42 -12 19 -14 58 -20
78 -13 3 1 37 3 75 5 39 1 76 5 83 10 6 4 12 4 12 -1 0 -4 75 -8 168 -7 92 0
187 -3 212 -7 33 -5 47 -4 52 6 5 8 24 12 50 11 24 -1 52 1 64 5 11 4 36 10
55 13 19 3 45 8 59 12 14 3 58 8 98 10 72 4 109 16 124 38 5 8 8 7 8 -1 0 -7
5 -13 11 -13 5 0 8 4 5 9 -8 12 48 31 72 24 11 -2 33 2 48 10 17 8 52 14 84
13 30 -2 71 2 90 7 19 5 53 11 74 13 22 1 42 8 46 14 4 6 20 13 36 16 42 8 59
12 62 14 1 2 5 3 10 4 4 1 13 5 20 9 6 5 12 5 12 1 0 -4 8 0 18 9 10 9 35 15
62 16 25 0 63 7 85 17 22 9 56 18 77 20 20 2 47 5 61 8 l25 4 -14 -46 c-8 -25
-12 -60 -10 -79 2 -25 -1 -34 -15 -38 -22 -7 -51 -94 -50 -149 0 -10 -3 -16
-6 -13 -18 19 -56 -65 -59 -133 -1 -30 -3 -57 -5 -60 -1 -3 -1 -8 0 -12 0 -5
-2 -8 -7 -8 -4 0 -8 -10 -9 -22 -1 -13 -2 -34 -4 -48 -1 -14 1 -32 5 -41 4 -9
1 -22 -6 -30 -7 -8 -13 -23 -13 -34 0 -11 -11 -36 -25 -54 -14 -19 -18 -31
-10 -26 12 7 13 6 3 -7 -7 -8 -11 -29 -9 -46 2 -18 1 -32 -3 -32 -3 0 -6 -17
-6 -38 -1 -26 -9 -45 -27 -63 -19 -19 -26 -35 -23 -54 1 -16 -3 -42 -9 -59
-18 -49 -15 -98 8 -102 17 -2 46 16 46 30 0 10 39 46 50 46 6 0 16 11 22 25 6
13 20 27 31 31 11 4 31 19 45 35 13 16 30 29 37 29 7 0 18 13 23 29 11 30 44
53 95 65 15 3 27 12 27 19 0 23 16 38 46 43 47 8 51 11 57 42 4 21 16 34 41
46 19 9 38 25 41 36 8 26 31 37 78 38 20 0 42 1 48 1 5 1 15 14 20 31 11 31
19 35 91 45 42 5 48 9 58 41 9 27 17 34 38 34 19 1 33 10 47 33 13 19 30 33
45 34 14 2 34 4 45 7 11 2 25 -1 32 -6 14 -11 33 17 33 51 0 12 49 30 90 33
47 2 67 13 74 41 3 15 18 30 36 37 16 7 30 19 30 26 0 19 56 46 88 43 35 -3
74 10 67 22 -4 5 -2 9 4 9 5 0 13 9 16 20 5 15 15 20 44 20 29 0 46 7 69 30
18 17 36 30 42 30 5 0 18 10 30 22 11 12 43 32 71 43 28 12 60 30 71 39 11 10
26 19 33 20 6 1 24 12 39 24 16 12 31 22 35 23 31 4 46 14 89 59 48 52 50 53
113 56 51 2 67 6 81 24 10 12 18 28 18 36 0 8 3 14 8 15 4 0 16 3 27 5 32 7
109 15 237 23 20 1 47 47 43 73 -3 17 22 18 102 3 30 -6 38 -1 96 57 77 76 89
97 75 122 -8 14 -7 17 1 12 6 -4 11 -3 11 2 0 9 53 28 56 20 3 -6 44 35 44 45
0 19 40 44 66 41 16 -1 27 3 32 14 13 35 46 54 103 57 37 2 109 32 109 45 0
10 53 32 88 36 15 1 54 6 87 9 33 4 66 8 73 8 6 0 12 6 12 13 0 14 39 40 53
36 4 -1 7 1 7 5 0 5 33 9 73 9 98 2 147 7 147 17 0 5 4 6 9 2 10 -6 61 14 61
25 0 6 182 6 205 0 6 -1 12 -1 15 0 14 5 120 4 120 -2 0 -3 9 -4 20 -1 12 3
20 0 20 -7 0 -7 8 -10 20 -7 10 3 20 1 22 -5 2 -5 24 -11 48 -13 25 -2 45 -4
45 -5 0 -1 20 -3 45 -4 47 -3 90 -20 90 -35 0 -12 60 -32 72 -25 21 13 133
-49 122 -67 -6 -10 -7 -10 59 -14 48 -3 87 -26 87 -50 0 -12 34 -28 55 -26 6
0 19 -13 28 -29 10 -17 15 -30 12 -30 -3 0 8 -13 25 -30 16 -16 30 -37 30 -47
0 -10 9 -24 20 -31 11 -7 20 -23 20 -37 0 -14 8 -33 18 -43 39 -40 42 -48 32
-81 -7 -26 -5 -36 10 -51 10 -10 23 -27 28 -37 10 -19 8 -87 -3 -123 -5 -15 0
-27 16 -41 23 -20 55 -27 44 -9 -3 5 4 12 17 14 40 8 102 17 147 21 34 3 51
11 70 34 25 29 86 60 126 66 11 1 24 3 28 4 5 0 6 5 3 9 -8 13 27 37 52 36 14
-1 22 4 22 15 0 28 29 60 50 56 27 -5 39 22 36 78 -4 50 21 97 50 97 8 0 21
15 29 34 10 24 22 35 44 39 20 4 30 12 30 24 0 10 2 54 4 98 5 83 13 118 27
110 9 -5 22 26 25 58 1 11 7 22 14 26 13 9 9 55 -11 121 -13 42 -10 233 3 224
4 -2 7 6 7 19 1 12 3 31 5 42 5 25 -9 55 -27 55 -29 0 -38 30 -40 132 l-2 103
-32 3 c-25 3 -33 9 -39 30 -4 15 -6 36 -5 47 3 35 -19 85 -36 85 -35 0 -45 17
-46 77 -2 68 -9 83 -41 83 -20 0 -26 7 -35 39 -8 31 -16 40 -39 44 -18 4 -36
18 -47 37 -10 16 -23 30 -28 30 -14 0 -105 103 -106 120 -1 16 -25 52 -34 51
-26 -3 -38 1 -43 17 -6 16 -106 124 -186 200 -32 31 -106 105 -180 182 -8 8
-25 25 -38 37 -13 12 -32 30 -41 40 -9 10 -23 23 -30 28 -7 6 -26 20 -42 33
-20 15 -43 22 -75 22 -55 0 -69 8 -74 39 -2 15 -18 30 -47 45 -24 12 -44 30
-46 40 -4 26 -22 36 -71 36 -43 0 -65 14 -88 54 -6 11 -27 19 -55 23 -53 6
-101 24 -94 35 3 4 -2 8 -11 8 -10 0 -13 5 -9 12 5 8 2 9 -9 5 -9 -3 -19 -2
-22 4 -4 5 -18 7 -32 5 -28 -6 -46 8 -51 39 -7 40 -28 50 -119 51 l-87 1 -39
43 c-34 36 -43 41 -66 34 -31 -9 -55 -6 -59 7 -2 5 -7 7 -12 4 -5 -3 -14 10
-20 29 -15 47 -39 54 -100 29 -31 -13 -87 -6 -118 15 -14 9 -34 18 -45 19 -25
4 -77 35 -77 46 0 4 -8 4 -17 -1 -47 -24 -152 4 -226 61 -35 27 -89 41 -112
28 -17 -9 -45 -11 -45 -3 0 4 -15 8 -33 8 -17 1 -51 9 -74 18 -33 12 -48 13
-74 4 -30 -10 -34 -9 -55 15 -23 27 -44 35 -44 18 0 -17 -106 -6 -141 15 -23
14 -46 20 -67 16 -18 -2 -32 0 -32 5 0 17 -43 28 -97 27 -32 0 -53 4 -53 10 0
6 -5 4 -10 -4 -6 -9 -10 -10 -10 -3 0 8 -9 9 -32 2 -18 -5 -34 -5 -37 -1 -4 4
-22 8 -41 10 -19 1 -44 9 -55 16 -11 7 -29 10 -40 6 -12 -4 -37 0 -60 10 -34
15 -98 19 -140 10 -22 -5 -74 13 -100 36 -23 19 -36 23 -65 19 -27 -4 -42 -1
-58 13 -22 19 -44 20 -127 7 -66 -11 -73 -12 -120 -2 -22 5 -58 10 -80 13 -22
2 -53 6 -70 9 -16 3 -50 7 -75 10 -25 3 -57 7 -71 9 -14 1 -30 6 -36 9 -5 3
-26 7 -46 9 -21 1 -37 5 -37 8 0 3 -55 6 -122 7 -68 1 -135 6 -150 12 -16 6
-28 7 -28 3 0 -9 -171 -6 -215 3 -16 4 -75 8 -130 10 -55 1 -111 7 -125 13
-14 5 -33 8 -42 7 -10 -2 -20 5 -23 16 -4 11 -10 17 -15 14 -5 -3 -11 -1 -15
5 -4 6 -13 7 -23 1 -22 -10 -154 -6 -178 6 -11 6 -30 7 -44 3 -14 -4 -36 -4
-50 0 -20 5 -115 5 -225 -1 -14 0 -35 6 -70 21 -16 7 -57 12 -90 12 -33 0 -65
5 -72 10 -6 5 -51 11 -100 13 -48 2 -97 5 -107 8 -11 2 -32 -2 -47 -10 -27
-13 -44 -13 -104 4 -16 5 -43 7 -60 3 -35 -7 -145 6 -158 19 -5 5 -23 5 -41 0
-45 -12 -164 -4 -208 14 -25 10 -40 12 -44 5 -3 -5 -20 -8 -38 -5 -81 13 -97
17 -108 23 -22 14 -139 22 -378 28 -111 3 -210 11 -261 21 -13 3 -53 7 -89 9
-36 3 -79 10 -95 16 -16 6 -63 13 -104 16 -42 2 -89 6 -106 8 -16 2 -39 0 -50
-4 -11 -4 -36 -2 -55 5 -21 7 -46 9 -62 4 -29 -8 -63 -6 -208 15 -30 5 -49 18
-44 31 7 16 -25 34 -46 27z"/>
<path d="M7957 4343 c6 -16 8 -16 23 1 9 12 8 15 -8 13 -12 0 -18 -6 -15 -14z"/>
</g>
</svg>
